<svg version="1.1" id="Layer_1" xmlns="http://www.w3.org/2000/svg" xmlns:xlink="http://www.w3.org/1999/xlink" x="0px" y="0px"
	 width="100%" viewBox="0 0 976 976" enable-background="new 0 0 976 976" xml:space="preserve">
<path fill="#000000" opacity="1.000000" stroke="none" 
	d="
M212.919510,456.055054 
	C235.945877,393.954620 275.472412,345.417999 329.928925,308.851227 
	C371.160492,281.164734 416.480896,263.227203 465.213287,254.296234 
	C500.593658,247.812241 535.817017,240.704636 570.608398,231.620132 
	C634.013550,215.064240 696.062927,194.468872 756.148499,168.171783 
	C763.621765,164.901001 771.058228,161.546158 778.525085,158.260651 
	C778.942322,158.077057 779.482178,158.172272 780.463196,158.102112 
	C782.390198,164.275284 782.538391,170.748886 783.114807,177.081619 
	C784.924072,196.956787 786.502563,216.849167 787.470032,236.794830 
	C788.842712,265.096100 789.001709,293.423950 787.998535,321.697235 
	C786.551208,362.485565 781.664062,402.936890 772.139465,442.715607 
	C761.983582,485.130829 746.669678,525.496155 722.854248,562.219849 
	C700.944763,596.004761 673.333191,624.347656 639.898804,647.013306 
	C614.482056,664.243774 586.641357,676.424316 558.355225,687.904297 
	C516.990540,704.692200 476.507172,723.460693 436.448029,743.158081 
	C386.801636,767.569580 337.992065,793.516174 290.537506,821.981079 
	C289.193756,822.787048 287.964661,824.223267 284.709717,823.318237 
	C341.970428,665.403259 430.158173,529.217529 561.252197,422.002289 
	C558.652039,420.741791 556.898071,422.074158 555.194702,422.737579 
	C518.328735,437.096466 484.435059,456.751099 452.785126,480.383057 
	C426.813751,499.774963 402.922028,521.522156 380.879761,545.224426 
	C342.707733,586.271240 310.361633,631.623535 282.690674,680.328552 
	C266.963470,708.010742 252.687424,736.414124 240.700607,765.937927 
	C240.095795,767.427612 239.773621,769.151611 238.305389,770.200500 
	C236.292099,770.036743 236.176102,768.330261 235.651428,767.004761 
	C221.777420,731.957764 209.987274,696.250366 202.547302,659.247681 
	C198.643875,639.834106 195.967270,620.234802 194.480957,600.437012 
	C193.342407,585.271423 193.265686,570.113892 193.831955,555.003906 
	C195.097672,521.231079 200.981598,488.229004 212.919510,456.055054 
z"/>
</svg>